<svg width="16" height="16" viewBox="0 0 16 16" fill="none" xmlns="http://www.w3.org/2000/svg">
<g clip-path="url(#clip0_78_16)">
<mask id="mask0_78_16" style="mask-type:luminance" maskUnits="userSpaceOnUse" x="0" y="0" width="16" height="16">
<path d="M16 0H0V16H16V0Z" fill="white"/>
</mask>
<g mask="url(#mask0_78_16)">
<path d="M12.3668 6.85541C12.3668 9.89966 9.90077 12.3657 6.85651 12.3657C3.81226 12.3657 1.34619 9.89966 1.34619 6.85541C1.34619 3.81117 3.81226 1.34509 6.85651 1.34509C9.90077 1.34509 12.3668 3.81117 12.3668 6.85541Z" stroke="#2C0958" stroke-width="1.5" stroke-miterlimit="10" stroke-linecap="round" stroke-linejoin="round"/>
<path d="M16.0015 10.4896C16.0015 13.5338 13.5354 15.9999 10.4912 15.9999C7.44691 15.9999 4.98083 13.5338 4.98083 10.4896C4.98083 7.44532 7.44691 4.97925 10.4912 4.97925C13.5354 4.99105 16.0015 7.45713 16.0015 10.4896Z" fill="url(#paint0_linear_78_16)"/>
</g>
</g>
<defs>
<linearGradient id="paint0_linear_78_16" x1="4.98083" y1="10.4896" x2="13.6546" y2="6.98551" gradientUnits="userSpaceOnUse">
<stop stop-color="#FF62B7"/>
<stop offset="1" stop-color="#9F53FF"/>
</linearGradient>
<clipPath id="clip0_78_16">
<rect width="16" height="16" fill="white"/>
</clipPath>
</defs>
</svg>
